HIERARCHY
ROOT Root
{
	OFFSET 0.00000 0.00000 0.00000
	CHANNELS 6 Xposition Yposition Zposition Zrotation Xrotation Yrotation
	JOINT Hips
	{
		OFFSET 0 0 0	
		CHANNELS 3 Zrotation Xrotation Yrotation
		JOINT Spine
		{
			OFFSET 0 4 0	
			CHANNELS 3 Zrotation Xrotation Yrotation
			JOINT Spine1
			{
				OFFSET 0 19.4 0	
				CHANNELS 3 Zrotation Xrotation Yrotation
				JOINT Spine2
				{
					OFFSET 0 16.6 0	
					CHANNELS 3 Zrotation Xrotation Yrotation
					JOINT LeftCollar
					{
						OFFSET 0 10 0	
						CHANNELS 3 Zrotation Xrotation Yrotation
						JOINT LeftArm
						{
							OFFSET 15.6 -2 3	
							CHANNELS 3 Zrotation Xrotation Yrotation
							JOINT LeftForeArm
							{
								OFFSET 3.5 -27 -1	
								CHANNELS 3 Zrotation Xrotation Yrotation
								JOINT LeftHand
								{
									OFFSET 1 -27 1	
									CHANNELS 3 Zrotation Xrotation Yrotation
									End Site
									{
										OFFSET 0 -15 0
									}
								}
							}
						}
					}
					JOINT RightCollar
					{
						OFFSET 0 10 0	
						CHANNELS 3 Zrotation Xrotation Yrotation
						JOINT RightArm
						{
							OFFSET -15.6 -2 3	
							CHANNELS 3 Zrotation Xrotation Yrotation
							JOINT RightForeArm
							{
								OFFSET -3.5 -27 -1	
								CHANNELS 3 Zrotation Xrotation Yrotation
								JOINT RightHand
								{
									OFFSET -1 -27 1	
									CHANNELS 3 Zrotation Xrotation Yrotation
									End Site
									{
										OFFSET 0 -15 0
									}
								}
							}
						}
					}
					JOINT Neck
					{
						OFFSET 0 10 0	
						CHANNELS 3 Zrotation Xrotation Yrotation
						JOINT Head
						{
							OFFSET 0 12.7 3	
							CHANNELS 3 Zrotation Xrotation Yrotation
							End Site
							{
								OFFSET 0 12.7 3
							}
						}
					}
				}
			}
		}
	}
	JOINT LeftHip
	{
		OFFSET 0 0 0	
		CHANNELS 3 Zrotation Xrotation Yrotation
		JOINT LeftUpLeg
		{
			OFFSET 8.8 -6 0	
			CHANNELS 3 Zrotation Xrotation Yrotation
			JOINT LeftLeg
			{
				OFFSET 0 -39 2	
				CHANNELS 3 Zrotation Xrotation Yrotation
				JOINT LeftFoot
				{
					OFFSET 0 -43 -2	
					CHANNELS 3 Zrotation Xrotation Yrotation
					JOINT LeftFootFront
					{
						OFFSET 0 -7 8.5	
						CHANNELS 3 Zrotation Xrotation Yrotation
						End Site
						{
							OFFSET 0 -0.5 9
						}
					}
				}
				JOINT LeftHeel
				{
					OFFSET 0 -43 -2	
					CHANNELS 3 Zrotation Xrotation Yrotation
					End Site
					{
						OFFSET 0 -7.5 -5
					}
				}
			}
		}
	}
	JOINT RightHip
	{
		OFFSET 0 0 0	
		CHANNELS 3 Zrotation Xrotation Yrotation
		JOINT RightUpLeg
		{
			OFFSET -8.8 -6 0	
			CHANNELS 3 Zrotation Xrotation Yrotation
			JOINT RightLeg
			{
				OFFSET 0 -39 2	
				CHANNELS 3 Zrotation Xrotation Yrotation
				JOINT RightFoot
				{
					OFFSET 0 -43 -2	
					CHANNELS 3 Zrotation Xrotation Yrotation
					JOINT RightFootFront
					{
						OFFSET 0 -7 8.5	
						CHANNELS 3 Zrotation Xrotation Yrotation
						End Site
						{
							OFFSET 0 -0.5 9
						}
					}
				}
				JOINT RightHeel
				{
					OFFSET 0 -43 -2	
					CHANNELS 3 Zrotation Xrotation Yrotation
					End Site
					{
						OFFSET 0 -7.5 -5
					}
				}
			}
		}
	}
}
MOTION
Frames: 11
Frame Time: 0.05
0 95.595 0 -0 0 -0 -3.4827 -2.5158 -19.13 0.11603 -4.1948 0.71358 0.11603 -4.1948 0.71358 0.093915 -3.5237 0.59865 -0 0 -0 -4.6976 7.9157 6.7089 5.3105 6.6099 1.5148 -1.5155 2.8177 -12.417 -0 0 -0 4.6262 2.9268 -23.37 -5.9011 4.9231 -4.7568 5.8684 -1.9356 8.5334 0.85894 0.10425 1.2113 0.95324 -3.4101 1.8626 -3.4827 -2.5158 -19.13 -1.9896 14.543 3.7117 3.1085 -12.825 -5.8878 -0 0 -0 -5.3361e-08 -2.3877e-16 5.1276e-07 -0 0 -0 -3.4827 -2.5158 -19.13 17.808 14.758 8.2206 -15.513 -4.203 13.275 -0 0 -0 -0 0 1.334e-07 -0 0 -0 
0 95.595 0 -0 0 -0 -3.5038 -2.5326 -19.123 0.10622 -4.2046 0.72073 0.10621 -4.2046 0.72073 0.085631 -3.532 0.6047 -0 0 -0 -4.6699 7.9793 6.7034 5.2973 6.663 1.5379 -1.4844 2.7496 -12.46 -0 0 -0 4.6609 2.9707 -23.443 -5.873 4.9374 -4.7447 5.845 -1.9479 8.555 0.87109 0.1472 1.136 0.95663 -3.3752 1.7943 -3.5038 -2.5326 -19.123 -1.9626 14.565 3.7086 3.1135 -12.793 -5.8858 -0 0 -0 0 0 -5.4778e-07 -0 0 -0 -3.5038 -2.5326 -19.123 17.823 14.769 8.2717 -15.516 -4.1829 13.216 -0 0 -0 2.1344e-07 -3.9757e-16 -2.1344e-07 -0 0 -0 
0 95.596 0 -0 0 -0 -3.5243 -2.5513 -19.119 0.10192 -4.2255 0.72271 0.10192 -4.2255 0.72271 0.081993 -3.5495 0.60638 -0 0 -0 -4.6612 8.0732 6.7238 5.3328 6.6792 1.5281 -1.5245 2.7397 -12.456 -0 0 -0 4.6774 3.0451 -23.514 -5.8422 4.9553 -4.7177 5.8427 -1.9514 8.5685 0.87401 0.21276 1.0684 0.95516 -3.3271 1.7287 -3.5243 -2.5513 -19.119 -1.9369 14.588 3.7039 3.1202 -12.757 -5.8791 -0 0 -0 0 0 -4.7274e-07 -0 0 -0 -3.5243 -2.5513 -19.119 17.837 14.783 8.3256 -15.518 -4.163 13.166 -0 0 -0 0 0 -9.3381e-08 -0 0 -0 
0 95.598 0 -0 0 -0 -3.5454 -2.5681 -19.117 0.1019 -4.2644 0.71288 0.1019 -4.2644 0.71288 0.081993 -3.5822 0.59812 -0 0 -0 -4.6666 8.2102 6.7907 5.3431 6.7019 1.528 -1.5354 2.7339 -12.467 -0 0 -0 4.6684 3.1548 -23.595 -5.8064 4.975 -4.6549 5.8724 -1.903 8.5955 0.86381 0.30875 0.97757 0.94391 -3.264 1.6295 -3.5454 -2.5681 -19.117 -1.9085 14.602 3.6952 3.123 -12.718 -5.8756 -0 0 -0 -0 0 3.0766e-07 -0 0 -0 -3.5454 -2.5681 -19.117 17.867 14.812 8.308 -15.53 -4.1788 13.198 -0 0 -0 0 0 -9.3381e-08 -0 0 -0 
0 95.6 0 -0 0 -0 -3.5737 -2.5636 -19.09 0.1005 -4.3044 0.7141 0.1005 -4.3044 0.71409 0.080779 -3.6158 0.59914 -0 0 -0 -4.6511 8.341 6.7917 5.3111 6.7224 1.5128 -1.5941 2.7923 -12.449 -0 0 -0 4.6447 3.2262 -23.726 -5.781 5.0188 -4.6206 5.9325 -1.8677 8.6283 0.81146 0.39448 0.63565 0.88932 -3.2125 1.2857 -3.5737 -2.5636 -19.09 -1.8649 14.589 3.6916 3.1132 -12.684 -5.9184 -0 0 -0 0 0 -7.4205e-07 -0 0 -0 -3.5737 -2.5636 -19.09 17.902 14.816 8.2987 -15.532 -4.1951 13.206 -0 0 -0 -0 0 2.001e-07 -0 0 -0 
0 95.604 0 -0 0 -0 -3.6001 -2.5565 -19.05 0.079601 -4.3598 0.70957 0.079601 -4.3599 0.70957 0.063206 -3.6623 0.59543 -0 0 -0 -4.604 8.5257 6.7654 5.321 6.7312 1.5082 -1.6529 2.8033 -12.426 -0 0 -0 4.6744 3.3417 -23.823 -5.7823 5.0552 -4.648 5.9721 -1.8646 8.6491 0.69929 0.54192 -0.12821 0.75782 -3.1129 0.51157 -3.6001 -2.5565 -19.05 -1.8415 14.583 3.692 3.1174 -12.659 -5.9583 -0 0 -0 -5.3361e-08 -6.4061e-17 1.3757e-07 -0 0 -0 -3.6001 -2.5565 -19.05 17.931 14.794 8.2749 -15.522 -4.1864 13.221 -0 0 -0 0 0 -1.5341e-07 -0 0 -0 
0 95.608 0 -0 0 -0 -3.6345 -2.5782 -19.019 0.05577 -4.3976 0.71404 0.055771 -4.3976 0.71404 0.043141 -3.694 0.5993 -0 0 -0 -4.5786 8.6932 6.7139 5.3036 6.7539 1.5894 -1.6809 2.7988 -12.473 -0 0 -0 4.7143 3.444 -23.896 -5.7798 5.0834 -4.6917 6.0043 -1.8498 8.637 0.43075 0.74981 -1.4922 0.46654 -2.9396 -0.86555 -3.6345 -2.5782 -19.019 -1.8087 14.589 3.6794 3.1051 -12.63 -5.9768 -0 0 -0 -5.3361e-08 3.7039e-16 -7.9541e-07 -0 0 -0 -3.6345 -2.5782 -19.019 17.96 14.819 8.2634 -15.514 -4.1838 13.216 -0 0 -0 0 0 -1.334e-07 -0 0 -0 
0 95.612 0 -0 0 -0 -3.674 -2.5901 -19.002 0.015663 -4.4398 0.7175 0.015663 -4.4398 0.71751 0.0094077 -3.7294 0.60241 -0 0 -0 -4.5204 8.8569 6.7602 5.3182 6.79 1.4833 -1.7192 2.7958 -12.445 -0 0 -0 4.8093 3.5251 -23.968 -5.768 5.1296 -4.6846 6.0012 -1.8118 8.6028 -0.083339 1.0809 -3.5041 -0.085377 -2.6495 -2.9077 -3.674 -2.5901 -19.002 -1.7697 14.589 3.6934 3.1015 -12.591 -5.9879 -0 0 -0 5.3361e-08 2.0733e-16 4.4523e-07 -0 0 -0 -3.674 -2.5901 -19.002 17.978 14.826 8.2694 -15.49 -4.1723 13.213 -0 0 -0 -0 0 1.9343e-07 -0 0 -0 
0 95.616 0 -0 0 -0 -3.7107 -2.5953 -18.999 -0.013945 -4.4932 0.71313 -0.013944 -4.4932 0.71313 -0.015476 -3.7743 0.59889 -0 0 -0 -4.4916 9.0755 6.818 5.3749 6.8477 1.3521 -1.7959 2.783 -12.4 -0 0 -0 4.8642 3.5835 -24.076 -5.7792 5.1912 -4.6154 6.0286 -1.7713 8.6056 -0.82111 1.5405 -5.7697 -0.85299 -2.242 -5.2258 -3.7107 -2.5953 -18.999 -1.7405 14.595 3.6986 3.1038 -12.566 -5.9798 -0 0 -0 0 0 -4.619e-07 -0 0 -0 -3.7107 -2.5953 -18.999 17.991 14.832 8.2776 -15.467 -4.163 13.216 -0 0 -0 -0 0 1.4007e-07 -0 0 -0 
0 95.619 0 -0 0 -0 -3.7365 -2.5951 -19.025 -0.050746 -4.5458 0.69117 -0.050747 -4.5458 0.69117 -0.046305 -3.8184 0.58064 -0 0 -0 -4.4338 9.3221 6.8286 5.4236 6.8841 1.3012 -1.898 2.7702 -12.36 -0 0 -0 4.9381 3.6106 -24.163 -5.8018 5.2073 -4.5714 6.0479 -1.8116 8.6129 -1.5358 2.0388 -7.8186 -1.6025 -1.7938 -7.3415 -3.7365 -2.5951 -19.025 -1.7091 14.6 3.684 3.1029 -12.548 -5.9319 -0 0 -0 -5.3361e-08 -2.9546e-16 6.3449e-07 -0 0 -0 -3.7365 -2.5951 -19.025 17.985 14.817 8.3296 -15.444 -4.136 13.194 -0 0 -0 0 0 -1.6675e-07 -0 0 -0 
0 95.621 0 -0 0 -0 -3.763 -2.5964 -19.102 -0.085468 -4.576 0.66247 -0.085468 -4.576 0.66246 -0.07533 -3.8438 0.55672 -0 0 -0 -4.3609 9.5038 6.9115 5.4522 6.8768 1.2234 -1.9614 2.7989 -12.349 -0 0 -0 5.0538 3.5898 -24.185 -5.8332 5.1425 -4.5582 6.0537 -1.7646 8.6164 -2.1276 2.4804 -9.453 -2.2256 -1.3815 -9.0404 -3.763 -2.5964 -19.102 -1.6875 14.618 3.6884 3.1067 -12.545 -5.85 -0 0 -0 0 0 -6.4533e-07 -0 0 -0 -3.763 -2.5964 -19.102 17.982 14.818 8.386 -15.43 -4.1323 13.192 -0 0 -0 0 0 -8.6711e-08 -0 0 -0 
